<svg width="694" height="694" viewBox="0 0 694 694" fill="none" xmlns="http://www.w3.org/2000/svg">
<path d="M347.001 23.1357L332.704 67.1379L354.706 74.2866" fill="#8593FB"/>
<path d="M346.999 23.1357L361.296 67.1379L339.295 74.2866" fill="#8593FB"/>
<path d="M391.006 55.0996H344.738V78.233" fill="#8593FB"/>
<path d="M391.005 55.0996L353.574 82.2945L339.977 63.5792" fill="#8593FB"/>
<path d="M374.2 106.828L359.903 62.8262L337.901 69.9748" fill="#8593FB"/>
<path d="M374.197 106.83L336.766 79.6352L350.363 60.9199" fill="#8593FB"/>
<path d="M319.806 106.83L357.237 79.6352L343.639 60.9199" fill="#8593FB"/>
<path d="M319.806 106.828L334.103 62.8262L356.104 69.9748" fill="#8593FB"/>
<path d="M302.998 55.0996L340.429 82.2945L354.026 63.5792" fill="#8593FB"/>
<path d="M302.998 55.0996H349.265V78.233" fill="#8593FB"/>
<path d="M485.801 60.3184L471.504 104.32L493.505 111.47" fill="#8593FB"/>
<path d="M485.799 60.3184L500.097 104.32L478.095 111.47" fill="#8593FB"/>
<path d="M529.801 92.2988H483.534V115.432" fill="#8593FB"/>
<path d="M529.801 92.2988L492.37 119.493L478.773 100.778" fill="#8593FB"/>
<path d="M513 144.02L498.703 100.017L476.701 107.166" fill="#8593FB"/>
<path d="M512.997 144.021L475.566 116.826L489.164 98.1104" fill="#8593FB"/>
<path d="M458.606 144.021L496.037 116.826L482.44 98.1104" fill="#8593FB"/>
<path d="M458.606 144.02L472.903 100.017L494.905 107.166" fill="#8593FB"/>
<path d="M441.798 92.2988L479.229 119.493L492.826 100.778" fill="#8593FB"/>
<path d="M441.798 92.2988H488.065V115.432" fill="#8593FB"/>
<path d="M587.411 161.937L573.113 205.939L595.115 213.087" fill="#8593FB"/>
<path d="M587.408 161.937L601.706 205.939L579.704 213.087" fill="#8593FB"/>
<path d="M631.41 193.908H585.143V217.041" fill="#8593FB"/>
<path d="M631.41 193.908L593.979 221.103L580.382 202.387" fill="#8593FB"/>
<path d="M614.605 245.628L600.308 201.626L578.307 208.775" fill="#8593FB"/>
<path d="M614.602 245.63L577.171 218.435L590.769 199.72" fill="#8593FB"/>
<path d="M560.215 245.63L597.646 218.435L584.049 199.72" fill="#8593FB"/>
<path d="M560.215 245.628L574.513 201.626L596.514 208.775" fill="#8593FB"/>
<path d="M543.407 193.899L580.838 221.094L594.435 202.378" fill="#8593FB"/>
<path d="M543.407 193.899H589.674V217.032" fill="#8593FB"/>
<path d="M624.601 300.728L610.304 344.73L632.306 351.879" fill="#8593FB"/>
<path d="M624.599 300.728L638.897 344.73L616.895 351.879" fill="#8593FB"/>
<path d="M668.601 332.708H622.334V355.841" fill="#8593FB"/>
<path d="M668.601 332.708L631.17 359.902L617.573 341.187" fill="#8593FB"/>
<path d="M651.796 384.428L637.499 340.426L615.497 347.575" fill="#8593FB"/>
<path d="M651.793 384.429L614.362 357.235L627.959 338.52" fill="#8593FB"/>
<path d="M597.406 384.429L634.837 357.235L621.24 338.52" fill="#8593FB"/>
<path d="M597.406 384.428L611.703 340.426L633.705 347.575" fill="#8593FB"/>
<path d="M580.598 332.7L618.029 359.895L631.626 341.179" fill="#8593FB"/>
<path d="M580.598 332.7H626.865V355.833" fill="#8593FB"/>
<path d="M587.411 439.527L573.113 483.53L595.115 490.679" fill="#8593FB"/>
<path d="M587.408 439.527L601.706 483.53L579.704 490.679" fill="#8593FB"/>
<path d="M631.41 471.508H585.143V494.641" fill="#8593FB"/>
<path d="M631.41 471.508L593.979 498.702L580.382 479.987" fill="#8593FB"/>
<path d="M614.608 523.228L600.312 479.226L578.311 486.375" fill="#8593FB"/>
<path d="M614.606 523.23L577.176 496.036L590.773 477.32" fill="#8593FB"/>
<path d="M560.215 523.23L597.646 496.036L584.049 477.32" fill="#8593FB"/>
<path d="M560.215 523.228L574.513 479.226L596.514 486.375" fill="#8593FB"/>
<path d="M543.407 471.5L580.838 498.694L594.435 479.979" fill="#8593FB"/>
<path d="M543.407 471.5H589.674V494.633" fill="#8593FB"/>
<path d="M485.801 541.146L471.504 585.148L493.505 592.296" fill="#8593FB"/>
<path d="M485.799 541.146L500.097 585.148L478.095 592.296" fill="#8593FB"/>
<path d="M529.801 573.109H483.534V596.243" fill="#8593FB"/>
<path d="M529.801 573.109L492.37 600.305L478.773 581.589" fill="#8593FB"/>
<path d="M513 624.837L498.703 580.835L476.701 587.984" fill="#8593FB"/>
<path d="M512.997 624.84L475.566 597.645L489.164 578.93" fill="#8593FB"/>
<path d="M458.606 624.84L496.037 597.645L482.44 578.93" fill="#8593FB"/>
<path d="M458.606 624.837L472.903 580.835L494.905 587.984" fill="#8593FB"/>
<path d="M441.798 573.109L479.229 600.304L492.826 581.588" fill="#8593FB"/>
<path d="M441.798 573.109H488.065V596.242" fill="#8593FB"/>
<path d="M347.001 578.328L332.704 622.33L354.706 629.479" fill="#8593FB"/>
<path d="M346.999 578.328L361.296 622.33L339.295 629.479" fill="#8593FB"/>
<path d="M391.006 610.3H344.738V633.433" fill="#8593FB"/>
<path d="M391.005 610.3L353.574 637.494L339.977 618.779" fill="#8593FB"/>
<path d="M374.2 662.029L359.903 618.026L337.901 625.175" fill="#8593FB"/>
<path d="M374.197 662.03L336.766 634.836L350.363 616.12" fill="#8593FB"/>
<path d="M319.806 662.031L357.237 634.836L343.639 616.12" fill="#8593FB"/>
<path d="M319.806 662.029L334.103 618.026L356.104 625.175" fill="#8593FB"/>
<path d="M302.998 610.3L340.429 637.494L354.026 618.779" fill="#8593FB"/>
<path d="M302.998 610.3H349.265V633.433" fill="#8593FB"/>
<path d="M208.205 541.146L193.908 585.148L215.909 592.296" fill="#8593FB"/>
<path d="M208.203 541.146L222.501 585.148L200.499 592.296" fill="#8593FB"/>
<path d="M252.205 573.109H205.938V596.243" fill="#8593FB"/>
<path d="M252.205 573.109L214.774 600.305L201.177 581.589" fill="#8593FB"/>
<path d="M235.4 624.837L221.103 580.835L199.102 587.984" fill="#8593FB"/>
<path d="M235.397 624.84L197.966 597.645L211.564 578.93" fill="#8593FB"/>
<path d="M181.01 624.84L218.441 597.645L204.844 578.93" fill="#8593FB"/>
<path d="M181.01 624.837L195.308 580.835L217.309 587.984" fill="#8593FB"/>
<path d="M164.202 573.109L201.633 600.305L215.23 581.589" fill="#8593FB"/>
<path d="M164.202 573.109H210.469V596.243" fill="#8593FB"/>
<path d="M106.592 439.527L92.2949 483.53L114.296 490.679" fill="#8593FB"/>
<path d="M106.59 439.527L120.887 483.53L98.8857 490.679" fill="#8593FB"/>
<path d="M150.596 471.5H104.329V494.633" fill="#8593FB"/>
<path d="M150.596 471.5L113.165 498.694L99.5679 479.979" fill="#8593FB"/>
<path d="M133.791 523.228L119.494 479.226L97.4922 486.375" fill="#8593FB"/>
<path d="M133.788 523.23L96.3569 496.036L109.954 477.32" fill="#8593FB"/>
<path d="M79.3965 523.23L116.827 496.036L103.23 477.32" fill="#8593FB"/>
<path d="M79.3965 523.228L93.6934 479.226L115.695 486.375" fill="#8593FB"/>
<path d="M62.5889 471.5L100.019 498.694L113.617 479.979" fill="#8593FB"/>
<path d="M62.5889 471.5H108.856V494.633" fill="#8593FB"/>
<path d="M69.4012 300.736L55.104 344.739L77.1051 351.887" fill="#8593FB"/>
<path d="M69.3987 300.736L83.6959 344.739L61.6948 351.887" fill="#8593FB"/>
<path d="M113.405 332.708H67.1382V355.841" fill="#8593FB"/>
<path d="M113.405 332.708L75.9744 359.902L62.377 341.187" fill="#8593FB"/>
<path d="M96.6 384.428L82.3024 340.426L60.3013 347.575" fill="#8593FB"/>
<path d="M96.5969 384.429L59.166 357.235L72.7634 338.52" fill="#8593FB"/>
<path d="M42.2061 384.429L79.6366 357.235L66.0391 338.52" fill="#8593FB"/>
<path d="M42.2061 384.428L56.5032 340.426L78.5044 347.575" fill="#8593FB"/>
<path d="M25.4023 332.7L62.8329 359.895L76.4303 341.179" fill="#8593FB"/>
<path d="M25.4023 332.7H71.6691V355.833" fill="#8593FB"/>
<path d="M106.596 161.928L92.2988 205.93L114.3 213.079" fill="#8593FB"/>
<path d="M106.594 161.928L120.892 205.93L98.8901 213.079" fill="#8593FB"/>
<path d="M150.596 193.899H104.329V217.032" fill="#8593FB"/>
<path d="M150.596 193.899L113.165 221.094L99.5679 202.378" fill="#8593FB"/>
<path d="M133.791 245.628L119.494 201.626L97.4922 208.774" fill="#8593FB"/>
<path d="M133.788 245.63L96.3569 218.435L109.954 199.72" fill="#8593FB"/>
<path d="M79.4009 245.63L116.832 218.435L103.234 199.72" fill="#8593FB"/>
<path d="M79.4009 245.628L93.6979 201.626L115.699 208.774" fill="#8593FB"/>
<path d="M62.5928 193.899L100.023 221.094L113.621 202.378" fill="#8593FB"/>
<path d="M62.5928 193.899H108.86V217.032" fill="#8593FB"/>
<path d="M208.205 60.3184L193.908 104.32L215.909 111.47" fill="#8593FB"/>
<path d="M208.203 60.3184L222.501 104.32L200.499 111.47" fill="#8593FB"/>
<path d="M252.205 92.2988H205.938V115.432" fill="#8593FB"/>
<path d="M252.205 92.2988L214.774 119.493L201.177 100.778" fill="#8593FB"/>
<path d="M235.4 144.02L221.103 100.017L199.102 107.166" fill="#8593FB"/>
<path d="M235.397 144.021L197.966 116.826L211.564 98.1104" fill="#8593FB"/>
<path d="M181.006 144.021L218.437 116.826L204.84 98.1104" fill="#8593FB"/>
<path d="M181.006 144.02L195.303 100.017L217.305 107.166" fill="#8593FB"/>
<path d="M164.198 92.2988L201.629 119.493L215.226 100.778" fill="#8593FB"/>
<path d="M164.198 92.2988H210.465V115.432" fill="#8593FB"/>
<path d="M244.43 329.665C243.819 327.542 242.961 325.665 241.856 324.036C240.75 322.378 239.398 320.982 237.798 319.848C236.227 318.684 234.423 317.797 232.387 317.186C230.381 316.575 228.156 316.27 225.712 316.27C221.145 316.27 217.131 317.404 213.669 319.673C210.237 321.942 207.561 325.244 205.641 329.578C203.722 333.883 202.761 339.148 202.761 345.372C202.761 351.597 203.707 356.891 205.598 361.254C207.488 365.618 210.165 368.948 213.626 371.246C217.087 373.515 221.174 374.649 225.886 374.649C230.162 374.649 233.813 373.893 236.838 372.38C239.892 370.838 242.22 368.671 243.819 365.879C245.448 363.086 246.262 359.786 246.262 355.975L250.102 356.542H227.064V342.318H264.457V353.575C264.457 361.429 262.799 368.177 259.483 373.82C256.167 379.435 251.6 383.769 245.782 386.822C239.965 389.848 233.304 391.36 225.8 391.36C217.422 391.36 210.063 389.513 203.722 385.819C197.38 382.096 192.435 376.816 188.887 369.981C185.367 363.116 183.607 354.971 183.607 345.547C183.607 338.304 184.654 331.846 186.749 326.174C188.872 320.473 191.839 315.645 195.65 311.689C199.46 307.732 203.896 304.722 208.957 302.656C214.019 300.592 219.501 299.559 225.407 299.559C230.468 299.559 235.18 300.3 239.543 301.784C243.906 303.239 247.775 305.304 251.15 307.98C254.553 310.656 257.331 313.841 259.483 317.535C261.635 321.2 263.017 325.244 263.628 329.665H244.43Z" fill="#213BF7"/>
<path d="M310.323 390.145H278.646V300.787H310.584C319.573 300.787 327.31 302.576 333.797 306.153C340.283 309.702 345.272 314.807 348.762 321.468C352.282 328.129 354.042 336.1 354.042 345.378C354.042 354.687 352.282 362.686 348.762 369.376C345.272 376.066 340.255 381.2 333.709 384.778C327.194 388.356 319.398 390.145 310.323 390.145ZM297.539 373.957H309.537C315.122 373.957 319.82 372.968 323.631 370.99C327.47 368.983 330.349 365.885 332.269 361.697C334.219 357.479 335.193 352.04 335.193 345.378C335.193 338.776 334.219 333.38 332.269 329.191C330.349 325.003 327.485 321.919 323.674 319.942C319.864 317.964 315.166 316.974 309.582 316.974H297.539V373.957Z" fill="#213BF7"/>
<path d="M368.04 390.145V300.787H403.294C410.071 300.787 415.845 302.081 420.615 304.67C425.386 307.23 429.022 310.793 431.523 315.36C434.054 319.897 435.319 325.134 435.319 331.067C435.319 337.001 434.04 342.237 431.48 346.775C428.92 351.312 425.211 354.846 420.353 357.378C415.525 359.908 409.679 361.173 402.814 361.173H380.343V346.033H399.76C403.395 346.033 406.392 345.408 408.748 344.157C411.133 342.877 412.908 341.117 414.071 338.877C415.264 336.609 415.86 334.005 415.86 331.067C415.86 328.1 415.264 325.512 414.071 323.3C412.908 321.061 411.133 319.33 408.748 318.108C406.362 316.858 403.337 316.232 399.672 316.232H386.932V390.145H368.04Z" fill="#213BF7"/>
<path d="M447.588 390.145V300.787H482.843C489.591 300.787 495.35 301.994 500.121 304.408C504.921 306.794 508.571 310.182 511.072 314.574C513.603 318.938 514.868 324.072 514.868 329.977C514.868 335.91 513.589 341.016 511.029 345.292C508.469 349.538 504.76 352.795 499.903 355.065C495.074 357.333 489.227 358.468 482.363 358.468H458.758V343.284H479.309C482.916 343.284 485.911 342.79 488.297 341.801C490.681 340.812 492.456 339.328 493.62 337.351C494.812 335.373 495.408 332.914 495.408 329.977C495.408 327.01 494.812 324.508 493.62 322.472C492.456 320.436 490.668 318.894 488.253 317.846C485.868 316.771 482.857 316.232 479.221 316.232H466.481V390.145H447.588ZM495.845 349.48L518.054 390.145H497.197L475.469 349.48H495.845Z" fill="#213BF7"/>
</svg>
